<?xml version="1.0" encoding="iso-8859-1"?>
<!-- Generator: Adobe Illustrator 19.0.0, SVG Export Plug-In . SVG Version: 6.00 Build 0)  -->
<svg version="1.1" id="Layer_1" xmlns="http://www.w3.org/2000/svg" xmlns:xlink="http://www.w3.org/1999/xlink" x="0px" y="0px"
	 viewBox="0 0 512 512" style="enable-background:new 0 0 512 512;" xml:space="preserve">
<g>
	<g>
		<path d="M240.141,302.612c-21.391-27.337-42.646-46.326-43.541-47.121l-14.787-13.143l-14.787,13.143
			c-0.895,0.794-22.15,19.784-43.544,47.121c-30.212,38.607-45.534,74.109-45.534,105.525c0,57.27,46.593,103.863,103.863,103.863
			s103.863-46.593,103.863-103.863C285.674,376.721,270.355,341.218,240.141,302.612z"/>
	</g>
</g>
<g>
	<g>
		<path d="M367.232,107.114l-14.787-13.143l-14.787,13.143c-6.839,6.079-66.82,60.972-66.82,115.552
			c0,44.998,36.609,81.607,81.607,81.607s81.607-36.609,81.607-81.607C434.054,168.086,374.073,113.193,367.232,107.114z"/>
	</g>
</g>
<g>
	<g>
		<path d="M196.601,13.143L181.814,0l-14.787,13.143c-5.321,4.73-51.982,47.458-51.982,90.823c0,36.818,29.951,66.769,66.769,66.769
			c36.817,0,66.769-29.953,66.769-66.769C248.583,60.601,201.922,17.873,196.601,13.143z"/>
	</g>
</g>
<g>
</g>
<g>
</g>
<g>
</g>
<g>
</g>
<g>
</g>
<g>
</g>
<g>
</g>
<g>
</g>
<g>
</g>
<g>
</g>
<g>
</g>
<g>
</g>
<g>
</g>
<g>
</g>
<g>
</g>
</svg>
